<mxfile host="Electron" agent="Mozilla/5.0 (Windows NT 10.0; Win64; x64) AppleWebKit/537.36 (KHTML, like Gecko) draw.io/26.0.16 Chrome/132.0.6834.196 Electron/34.2.0 Safari/537.36" version="26.0.16">
  <diagram name="Page-1" id="E4BF7f2G1A1T2gzXBzsd">
    <mxGraphModel dx="1098" dy="820" grid="1" gridSize="10" guides="1" tooltips="1" connect="1" arrows="1" fold="1" page="1" pageScale="1" pageWidth="850" pageHeight="1100" math="0" shadow="0">
      <root>
        <mxCell id="0" />
        <mxCell id="1" parent="0" />
        <mxCell id="NbdVsdIS-ysueSZJEKC2-6" style="edgeStyle=orthogonalEdgeStyle;rounded=0;orthogonalLoop=1;jettySize=auto;html=1;exitX=0.75;exitY=1;exitDx=0;exitDy=0;entryX=0.25;entryY=0;entryDx=0;entryDy=0;" edge="1" parent="1" source="NbdVsdIS-ysueSZJEKC2-1" target="NbdVsdIS-ysueSZJEKC2-5">
          <mxGeometry relative="1" as="geometry" />
        </mxCell>
        <mxCell id="NbdVsdIS-ysueSZJEKC2-1" value="user palication" style="rounded=1;whiteSpace=wrap;html=1;" vertex="1" parent="1">
          <mxGeometry x="330" y="120" width="210" height="160" as="geometry" />
        </mxCell>
        <mxCell id="NbdVsdIS-ysueSZJEKC2-12" style="edgeStyle=orthogonalEdgeStyle;rounded=0;orthogonalLoop=1;jettySize=auto;html=1;exitX=0.25;exitY=1;exitDx=0;exitDy=0;entryX=0.25;entryY=0;entryDx=0;entryDy=0;" edge="1" parent="1" source="NbdVsdIS-ysueSZJEKC2-2" target="NbdVsdIS-ysueSZJEKC2-11">
          <mxGeometry relative="1" as="geometry" />
        </mxCell>
        <mxCell id="NbdVsdIS-ysueSZJEKC2-16" style="edgeStyle=orthogonalEdgeStyle;rounded=0;orthogonalLoop=1;jettySize=auto;html=1;exitX=0;exitY=0.25;exitDx=0;exitDy=0;entryX=0.5;entryY=0;entryDx=0;entryDy=0;" edge="1" parent="1" source="NbdVsdIS-ysueSZJEKC2-2" target="NbdVsdIS-ysueSZJEKC2-17">
          <mxGeometry relative="1" as="geometry">
            <mxPoint x="140" y="375" as="targetPoint" />
          </mxGeometry>
        </mxCell>
        <mxCell id="NbdVsdIS-ysueSZJEKC2-2" value="multy player" style="rounded=1;whiteSpace=wrap;html=1;" vertex="1" parent="1">
          <mxGeometry x="290" y="360" width="120" height="60" as="geometry" />
        </mxCell>
        <mxCell id="NbdVsdIS-ysueSZJEKC2-3" style="edgeStyle=orthogonalEdgeStyle;rounded=0;orthogonalLoop=1;jettySize=auto;html=1;exitX=0.25;exitY=1;exitDx=0;exitDy=0;entryX=0.433;entryY=0.017;entryDx=0;entryDy=0;entryPerimeter=0;" edge="1" parent="1" source="NbdVsdIS-ysueSZJEKC2-1" target="NbdVsdIS-ysueSZJEKC2-2">
          <mxGeometry relative="1" as="geometry" />
        </mxCell>
        <mxCell id="NbdVsdIS-ysueSZJEKC2-4" style="edgeStyle=orthogonalEdgeStyle;rounded=0;orthogonalLoop=1;jettySize=auto;html=1;exitX=1;exitY=0;exitDx=0;exitDy=0;entryX=0.462;entryY=1.013;entryDx=0;entryDy=0;entryPerimeter=0;" edge="1" parent="1" source="NbdVsdIS-ysueSZJEKC2-2" target="NbdVsdIS-ysueSZJEKC2-1">
          <mxGeometry relative="1" as="geometry" />
        </mxCell>
        <mxCell id="NbdVsdIS-ysueSZJEKC2-5" value="sigal player ai" style="rounded=1;whiteSpace=wrap;html=1;" vertex="1" parent="1">
          <mxGeometry x="470" y="350" width="120" height="60" as="geometry" />
        </mxCell>
        <mxCell id="NbdVsdIS-ysueSZJEKC2-7" style="edgeStyle=orthogonalEdgeStyle;rounded=0;orthogonalLoop=1;jettySize=auto;html=1;exitX=0.75;exitY=0;exitDx=0;exitDy=0;entryX=0.957;entryY=1.019;entryDx=0;entryDy=0;entryPerimeter=0;" edge="1" parent="1" source="NbdVsdIS-ysueSZJEKC2-5" target="NbdVsdIS-ysueSZJEKC2-1">
          <mxGeometry relative="1" as="geometry" />
        </mxCell>
        <mxCell id="NbdVsdIS-ysueSZJEKC2-10" style="edgeStyle=orthogonalEdgeStyle;rounded=0;orthogonalLoop=1;jettySize=auto;html=1;exitX=0.75;exitY=0;exitDx=0;exitDy=0;entryX=0.976;entryY=0.394;entryDx=0;entryDy=0;entryPerimeter=0;" edge="1" parent="1" source="NbdVsdIS-ysueSZJEKC2-8" target="NbdVsdIS-ysueSZJEKC2-1">
          <mxGeometry relative="1" as="geometry">
            <mxPoint x="590" y="130" as="targetPoint" />
            <Array as="points">
              <mxPoint x="720" y="190" />
              <mxPoint x="535" y="190" />
            </Array>
          </mxGeometry>
        </mxCell>
        <mxCell id="NbdVsdIS-ysueSZJEKC2-14" style="edgeStyle=orthogonalEdgeStyle;rounded=0;orthogonalLoop=1;jettySize=auto;html=1;exitX=0.25;exitY=1;exitDx=0;exitDy=0;entryX=1;entryY=0.25;entryDx=0;entryDy=0;" edge="1" parent="1" source="NbdVsdIS-ysueSZJEKC2-8" target="NbdVsdIS-ysueSZJEKC2-11">
          <mxGeometry relative="1" as="geometry" />
        </mxCell>
        <mxCell id="NbdVsdIS-ysueSZJEKC2-8" value="game viewer and anilizer&amp;nbsp;" style="rounded=1;whiteSpace=wrap;html=1;" vertex="1" parent="1">
          <mxGeometry x="630" y="320" width="120" height="60" as="geometry" />
        </mxCell>
        <mxCell id="NbdVsdIS-ysueSZJEKC2-9" style="edgeStyle=orthogonalEdgeStyle;rounded=0;orthogonalLoop=1;jettySize=auto;html=1;exitX=1;exitY=0.75;exitDx=0;exitDy=0;entryX=0.083;entryY=0;entryDx=0;entryDy=0;entryPerimeter=0;" edge="1" parent="1" source="NbdVsdIS-ysueSZJEKC2-1" target="NbdVsdIS-ysueSZJEKC2-8">
          <mxGeometry relative="1" as="geometry" />
        </mxCell>
        <mxCell id="NbdVsdIS-ysueSZJEKC2-15" style="edgeStyle=orthogonalEdgeStyle;rounded=0;orthogonalLoop=1;jettySize=auto;html=1;exitX=1;exitY=0.75;exitDx=0;exitDy=0;entryX=0.75;entryY=1;entryDx=0;entryDy=0;" edge="1" parent="1" source="NbdVsdIS-ysueSZJEKC2-11" target="NbdVsdIS-ysueSZJEKC2-8">
          <mxGeometry relative="1" as="geometry" />
        </mxCell>
        <mxCell id="NbdVsdIS-ysueSZJEKC2-11" value="game data" style="rounded=1;whiteSpace=wrap;html=1;" vertex="1" parent="1">
          <mxGeometry x="260" y="490" width="200" height="90" as="geometry" />
        </mxCell>
        <mxCell id="NbdVsdIS-ysueSZJEKC2-13" style="edgeStyle=orthogonalEdgeStyle;rounded=0;orthogonalLoop=1;jettySize=auto;html=1;exitX=0.5;exitY=0;exitDx=0;exitDy=0;entryX=0.642;entryY=1.033;entryDx=0;entryDy=0;entryPerimeter=0;" edge="1" parent="1" source="NbdVsdIS-ysueSZJEKC2-11" target="NbdVsdIS-ysueSZJEKC2-2">
          <mxGeometry relative="1" as="geometry" />
        </mxCell>
        <mxCell id="NbdVsdIS-ysueSZJEKC2-18" style="edgeStyle=orthogonalEdgeStyle;rounded=0;orthogonalLoop=1;jettySize=auto;html=1;exitX=1;exitY=0.25;exitDx=0;exitDy=0;entryX=0;entryY=0.75;entryDx=0;entryDy=0;" edge="1" parent="1" source="NbdVsdIS-ysueSZJEKC2-17" target="NbdVsdIS-ysueSZJEKC2-2">
          <mxGeometry relative="1" as="geometry" />
        </mxCell>
        <mxCell id="NbdVsdIS-ysueSZJEKC2-17" value="" style="rounded=1;whiteSpace=wrap;html=1;" vertex="1" parent="1">
          <mxGeometry x="60" y="400" width="120" height="60" as="geometry" />
        </mxCell>
      </root>
    </mxGraphModel>
  </diagram>
</mxfile>
